<svg xmlns="http://www.w3.org/2000/svg" viewBox="0 0 521.4286 400" width="521.4285714285714" height="400"><g transform="matrix(0 1 -1 0 521.4286 -0)"><g id="svgg"><path id="path0" d="M112.838 9.872 C 111.487 10.966,111.142 12.189,110.670 17.551 C 110.362 21.059,109.606 25.536,108.991 27.500 C 108.300 29.707,107.870 33.733,107.865 38.036 L 107.857 45.000 110.714 45.000 L 113.571 45.000 113.571 52.492 L 113.571 59.983 140.893 60.170 L 168.214 60.357 151.429 62.005 C 126.664 64.435,122.033 66.233,117.382 75.227 C 114.638 80.535,111.863 114.487,112.351 136.786 L 112.664 151.071 118.077 166.786 C 121.054 175.429,123.503 182.821,123.519 183.214 C 123.536 183.607,121.331 179.710,118.620 174.553 C 113.631 165.064,106.020 152.309,101.838 146.429 C 100.016 143.867,99.225 141.547,97.943 135.000 C 88.021 84.353,83.606 68.519,77.846 62.930 C 69.997 55.311,51.656 51.107,41.786 54.663 C 40.214 55.230,37.583 55.698,35.939 55.704 C 27.444 55.734,25.407 62.633,26.793 86.677 L 27.301 95.473 34.551 95.150 C 50.119 94.458,60.530 99.562,65.398 110.271 C 75.309 132.081,58.542 153.650,33.036 151.902 L 27.143 151.498 27.143 238.501 L 27.143 325.504 33.074 325.959 C 54.003 327.568,67.291 337.005,71.043 352.924 C 75.835 373.253,60.990 389.274,34.987 391.836 C 30.536 392.275,30.000 392.490,30.000 393.842 C 30.000 396.375,33.613 438.814,33.975 440.536 C 34.240 441.797,34.810 442.146,36.621 442.158 C 38.516 442.171,39.120 442.585,40.000 444.476 C 41.653 448.028,43.490 448.549,54.409 448.561 C 64.028 448.571,64.211 448.542,66.512 446.607 L 68.848 444.643 85.057 444.643 C 105.037 444.643,105.778 444.251,106.838 433.128 C 107.263 428.667,136.557 363.462,137.647 364.552 C 137.783 364.688,136.856 372.318,135.585 381.507 C 132.196 406.022,132.579 430.664,136.461 437.918 C 137.177 439.256,143.720 440.648,159.643 442.850 L 168.929 444.134 145.287 444.210 L 121.646 444.286 121.180 451.897 C 120.924 456.083,120.714 463.099,120.714 467.489 L 120.714 475.470 117.143 477.143 L 113.571 478.816 113.571 487.622 L 113.571 496.429 115.357 496.429 L 117.143 496.429 117.143 503.851 L 117.143 511.273 120.014 512.422 C 124.483 514.210,131.711 513.925,136.321 511.779 L 140.142 510.000 200.719 510.000 L 261.297 510.000 265.060 511.952 C 269.684 514.351,275.378 514.584,279.871 512.558 L 282.857 511.212 282.857 503.463 L 282.857 495.714 284.643 495.714 L 286.429 495.714 286.429 487.512 L 286.429 479.310 282.857 477.500 L 279.286 475.690 279.286 459.997 L 279.286 444.305 255.234 444.117 L 231.183 443.929 247.828 441.320 C 257.762 439.762,264.694 438.352,265.023 437.821 C 268.030 432.954,268.238 404.920,265.428 382.997 C 264.356 374.628,263.589 367.447,263.724 367.041 C 264.507 364.694,293.571 429.065,293.571 433.146 C 293.571 443.835,296.569 445.345,316.737 444.815 C 329.886 444.470,332.295 444.565,332.632 445.445 C 333.545 447.822,336.852 448.571,346.429 448.571 C 356.944 448.571,359.220 447.893,360.700 444.319 C 361.454 442.501,361.999 442.143,364.015 442.143 C 365.343 442.143,366.429 441.898,366.429 441.598 C 366.429 440.510,369.984 399.539,370.395 395.893 L 370.817 392.143 368.329 392.143 C 347.884 392.143,329.634 378.639,328.718 362.834 C 327.514 342.081,342.070 328.016,366.828 326.007 L 372.857 325.518 372.857 238.563 L 372.857 151.608 366.607 151.949 C 346.872 153.025,332.494 140.910,332.504 123.214 C 332.515 104.184,344.650 94.084,366.184 95.183 L 373.571 95.560 373.571 79.186 C 373.571 58.184,372.666 55.714,364.968 55.714 C 363.161 55.714,360.150 55.192,358.277 54.554 C 350.142 51.782,334.045 54.487,326.243 59.938 C 317.304 66.183,315.435 71.704,305.006 122.672 L 300.879 142.843 295.901 150.529 C 289.955 159.708,286.465 165.694,280.734 176.539 C 278.379 180.996,276.447 184.422,276.440 184.153 C 276.434 183.884,279.045 176.169,282.244 167.010 L 288.059 150.357 288.390 135.774 C 288.747 120.085,287.927 106.453,285.636 90.000 C 282.369 66.540,280.540 64.999,252.500 62.089 L 233.929 60.162 260.179 60.081 L 286.429 60.000 286.429 52.857 L 286.429 45.714 289.706 45.714 L 292.984 45.714 292.647 38.036 C 292.461 33.813,291.794 28.613,291.162 26.480 C 290.531 24.348,289.896 20.032,289.750 16.889 C 289.318 7.576,300.022 8.571,200.357 8.571 C 118.321 8.571,114.371 8.630,112.838 9.872 M286.286 12.286 C 286.780 12.780,287.143 15.149,287.143 17.886 C 287.143 20.494,287.786 25.142,288.571 28.214 C 290.711 36.581,290.558 42.857,288.214 42.857 C 286.526 42.857,286.429 42.643,286.429 38.929 L 286.429 35.000 264.299 35.000 L 242.170 35.000 241.710 36.832 C 241.028 39.551,242.604 50.294,244.223 53.953 L 245.634 57.143 200.000 57.143 L 154.366 57.143 155.726 54.068 C 157.322 50.460,158.760 41.991,158.439 38.091 L 158.214 35.357 135.893 35.168 L 113.571 34.980 113.571 38.918 C 113.571 42.350,113.392 42.857,112.175 42.857 C 110.001 42.857,109.894 34.968,111.962 27.143 C 112.844 23.804,113.568 19.287,113.569 17.107 C 113.570 14.927,113.957 12.757,114.429 12.286 C 115.673 11.041,285.041 11.041,286.286 12.286 M123.566 41.412 C 116.128 45.771,116.429 45.770,116.429 41.429 L 116.429 37.857 123.030 37.857 L 129.631 37.857 123.566 41.412 M149.774 38.321 C 149.519 38.577,141.911 42.718,132.869 47.524 L 116.429 56.262 116.429 52.577 L 116.429 48.892 125.893 43.388 L 135.357 37.884 142.798 37.871 C 146.890 37.863,150.029 38.066,149.774 38.321 M274.042 43.371 L 283.571 48.886 283.571 52.574 L 283.571 56.262 267.131 47.524 C 258.089 42.718,250.481 38.577,250.226 38.321 C 249.971 38.066,253.081 37.857,257.137 37.857 L 264.512 37.857 274.042 43.371 M283.571 41.429 C 283.571 45.770,283.872 45.771,276.434 41.412 L 270.369 37.857 276.970 37.857 L 283.571 37.857 283.571 41.429 M155.387 44.018 C 154.979 46.198,154.099 46.919,145.914 51.782 L 136.892 57.143 128.982 57.136 L 121.071 57.130 138.214 47.989 C 156.750 38.105,156.485 38.166,155.387 44.018 M266.071 50.297 L 278.929 57.130 271.071 57.134 L 263.214 57.139 254.201 51.824 C 244.826 46.297,244.316 45.735,244.295 40.906 L 244.286 38.598 248.750 41.031 C 251.205 42.369,259.000 46.539,266.071 50.297 M152.506 54.274 C 151.115 56.964,150.360 57.299,146.339 57.009 L 143.229 56.786 148.222 53.810 C 153.543 50.638,154.341 50.725,152.506 54.274 M254.286 55.292 L 257.500 57.126 253.382 57.134 C 249.500 57.142,249.184 57.010,247.849 54.821 C 245.687 51.276,245.993 50.329,248.750 52.028 C 250.027 52.815,252.518 54.284,254.286 55.292 M62.652 57.862 C 79.207 62.403,80.986 66.301,92.807 123.924 L 96.983 144.278 101.975 151.960 C 112.010 167.404,122.791 188.035,128.759 203.214 C 132.821 213.547,132.533 213.789,127.488 204.286 C 121.344 192.714,116.217 185.060,110.402 178.779 L 105.714 173.716 105.710 168.465 C 105.705 161.746,104.767 158.455,101.936 155.231 C 94.479 146.737,80.268 150.946,78.773 162.092 L 78.383 165.000 58.574 165.000 C 35.993 165.000,35.864 165.031,34.428 170.874 C 33.914 172.966,33.808 197.363,34.091 248.262 L 34.504 322.596 41.108 323.430 C 55.364 325.230,66.733 331.397,75.038 341.833 C 81.061 349.403,85.259 350.461,100.357 348.214 C 113.749 346.221,134.258 341.112,139.464 338.472 C 140.938 337.725,142.142 337.361,142.141 337.664 C 142.133 339.479,139.806 351.085,138.980 353.426 C 138.437 354.965,130.409 372.282,121.139 391.909 C 105.236 425.583,104.286 427.826,104.286 431.701 C 104.286 441.562,103.113 442.143,83.214 442.143 L 66.678 442.143 65.000 443.929 C 63.383 445.650,62.999 445.714,54.320 445.714 C 44.086 445.714,42.143 445.024,42.143 441.388 C 42.143 439.412,41.972 439.286,39.286 439.286 C 37.508 439.286,36.429 438.955,36.429 438.411 C 36.429 437.930,35.603 428.095,34.593 416.556 C 33.583 405.017,32.884 395.449,33.040 395.293 C 33.195 395.138,36.142 394.519,39.588 393.918 C 64.504 389.573,77.212 375.512,74.375 355.426 C 71.690 336.419,58.564 326.086,33.393 323.163 L 30.000 322.770 30.002 238.706 L 30.003 154.643 37.323 154.547 C 58.790 154.267,73.312 138.868,70.728 119.126 C 68.375 101.151,55.895 91.543,35.833 92.261 L 29.167 92.500 29.405 77.467 C 29.691 59.404,29.967 58.571,35.684 58.571 C 37.614 58.571,40.098 58.219,41.204 57.789 C 46.752 55.629,54.609 55.656,62.652 57.862 M358.165 57.568 C 360.103 58.120,362.996 58.576,364.594 58.582 C 370.401 58.604,370.714 59.578,370.716 77.632 L 370.718 92.500 364.910 92.264 C 346.302 91.509,334.021 99.650,330.363 115.165 C 325.195 137.081,342.503 156.390,365.893 154.804 L 370.714 154.476 370.714 238.615 L 370.714 322.754 366.607 323.216 C 343.306 325.836,330.755 334.781,326.791 351.593 C 321.586 373.672,335.191 390.098,362.113 394.240 C 365.043 394.690,367.493 395.126,367.558 395.208 C 367.623 395.290,366.833 405.161,365.802 417.143 L 363.929 438.929 361.250 439.150 C 358.947 439.341,358.571 439.616,358.571 441.115 C 358.571 446.067,339.545 448.380,335.420 443.929 L 333.765 442.143 317.550 442.143 C 297.231 442.143,297.098 442.078,296.178 431.737 C 295.758 427.024,294.608 424.318,278.881 391.053 C 260.250 351.647,254.086 334.210,260.179 338.149 C 265.711 341.725,300.274 349.286,311.090 349.286 C 317.065 349.286,319.444 347.877,327.758 339.416 C 338.294 328.693,346.692 324.657,361.607 323.148 L 366.429 322.660 366.429 247.091 C 366.429 200.535,366.165 170.829,365.743 169.718 C 363.929 164.948,364.189 165.000,342.143 165.000 C 326.621 165.000,322.142 164.800,322.139 164.107 C 322.105 156.522,314.833 150.137,307.077 150.882 C 298.985 151.660,295.000 157.131,295.000 167.464 L 295.000 173.763 289.944 179.085 C 284.105 185.233,279.024 192.763,272.914 204.325 C 267.801 214.002,267.377 213.531,271.713 202.993 C 278.936 185.440,288.412 167.354,298.228 152.385 C 303.213 144.784,303.528 144.054,304.997 136.671 C 312.592 98.510,318.450 74.052,321.060 69.598 C 327.262 59.015,344.092 53.559,358.165 57.568 M228.037 62.479 C 241.884 63.842,256.860 65.297,261.317 65.713 C 276.174 67.097,279.848 70.822,282.459 87.143 C 284.520 100.028,285.714 116.700,285.714 132.597 L 285.714 148.536 283.770 147.797 C 240.883 131.491,163.022 130.475,119.107 145.647 L 115.000 147.066 115.000 131.494 C 115.000 109.699,117.223 84.078,119.696 77.367 C 122.434 69.935,129.045 66.954,146.418 65.317 C 153.113 64.686,166.382 63.269,175.903 62.168 C 198.357 59.571,198.513 59.572,228.037 62.479 M28.929 96.721 C 11.838 100.956,3.080 119.291,10.545 135.210 C 22.326 160.332,60.552 153.204,62.648 125.493 C 64.068 106.710,47.088 92.221,28.929 96.721 M359.318 96.495 C 338.579 100.560,330.576 127.787,345.680 142.891 C 358.435 155.646,380.719 152.424,389.126 136.609 C 400.201 115.775,382.497 91.951,359.318 96.495 M46.173 101.425 C 67.426 111.888,62.547 144.119,39.170 147.685 C 16.266 151.179,1.857 124.305,17.239 106.785 C 24.243 98.809,36.315 96.572,46.173 101.425 M371.477 99.691 C 386.536 104.037,393.879 120.180,387.111 134.061 C 379.143 150.401,357.028 152.856,345.776 138.650 C 331.208 120.256,349.045 93.217,371.477 99.691 M216.464 137.890 C 235.613 139.380,256.677 143.117,275.402 148.345 L 284.732 150.951 281.631 159.583 C 277.655 170.647,270.784 192.286,267.868 202.924 L 265.598 211.204 260.120 209.880 C 223.889 201.123,181.125 199.906,143.026 206.549 C 138.208 207.389,134.118 207.927,133.936 207.746 C 133.755 207.564,131.362 199.835,128.619 190.570 C 125.877 181.304,121.888 168.466,119.756 162.040 C 115.246 148.449,114.744 149.799,125.465 146.678 C 152.314 138.861,186.507 135.560,216.464 137.890 M97.150 155.179 C 106.578 161.595,104.528 163.978,82.040 172.738 C 80.771 173.233,81.371 161.872,82.751 159.275 C 84.606 155.784,88.112 153.571,91.786 153.571 C 93.724 153.571,95.626 154.141,97.150 155.179 M315.104 156.132 C 318.802 159.609,321.650 173.924,318.393 172.665 C 309.179 169.103,297.857 163.769,297.857 162.990 C 297.857 155.301,309.357 150.727,315.104 156.132 M78.690 175.591 C 78.981 185.890,80.515 189.064,86.469 191.679 C 88.970 192.777,89.969 193.621,89.974 194.643 C 89.984 196.324,94.416 252.454,94.551 252.599 C 94.755 252.818,136.879 259.290,138.087 259.288 C 139.250 259.286,139.338 258.850,138.912 255.179 C 136.429 233.784,127.048 212.191,111.016 190.971 C 105.522 183.699,105.045 182.810,105.478 180.645 L 105.952 178.277 109.469 182.174 C 120.354 194.236,134.887 222.945,139.646 241.786 C 141.069 247.421,142.865 265.714,141.994 265.714 C 141.826 265.714,140.103 265.247,138.165 264.676 C 119.309 259.117,88.451 256.070,55.763 256.539 L 36.429 256.817 36.429 215.171 C 36.429 170.260,36.500 169.355,40.147 167.891 C 41.048 167.529,50.036 167.213,60.119 167.188 L 78.452 167.143 78.690 175.591 M102.857 173.952 C 102.857 181.880,102.011 184.428,98.296 187.690 C 91.730 193.454,81.400 188.092,81.441 178.940 L 81.454 176.071 91.620 171.677 C 97.211 169.260,102.027 167.251,102.321 167.212 C 102.616 167.174,102.857 170.207,102.857 173.952 M309.643 172.143 C 319.857 176.551,320.212 176.948,318.635 182.212 C 315.878 191.413,303.657 192.723,299.180 184.297 C 297.261 180.687,297.201 166.939,299.107 167.661 C 299.795 167.922,304.536 169.938,309.643 172.143 M361.940 168.775 C 363.130 169.966,363.227 172.903,363.409 213.418 L 363.603 256.786 337.694 256.786 C 311.031 256.786,302.260 257.332,284.643 260.093 C 275.820 261.475,262.619 264.296,259.734 265.415 C 257.598 266.244,258.422 250.006,261.002 240.434 C 266.017 221.820,280.868 192.989,290.931 182.331 L 294.643 178.400 295.002 180.807 C 295.319 182.940,294.790 183.948,290.359 189.644 C 276.293 207.724,265.673 230.044,262.531 248.129 C 261.084 256.454,261.093 259.286,262.563 259.286 C 264.359 259.286,305.323 252.769,305.665 252.428 C 305.882 252.212,310.392 199.277,310.690 193.448 C 310.703 193.184,311.818 192.604,313.167 192.158 C 319.251 190.151,322.133 184.227,322.139 173.717 L 322.143 167.077 341.404 167.289 C 358.771 167.479,360.791 167.625,361.940 168.775 M112.991 198.571 C 125.083 215.773,133.543 236.102,135.983 253.819 C 136.333 256.364,136.245 256.540,134.788 256.200 C 133.922 255.998,125.339 254.637,115.714 253.175 C 106.089 251.713,97.940 250.271,97.604 249.970 C 97.036 249.461,92.914 202.454,92.875 196.041 C 92.858 193.243,92.952 193.128,95.893 192.338 C 97.684 191.857,99.918 190.498,101.343 189.024 L 103.757 186.526 106.742 190.227 C 108.384 192.263,111.196 196.018,112.991 198.571 M302.192 191.454 C 303.705 192.226,305.599 192.857,306.400 192.857 C 307.201 192.857,307.859 193.098,307.862 193.393 C 307.890 196.813,303.324 249.753,302.975 250.063 C 302.714 250.293,294.625 251.682,285.000 253.149 C 275.375 254.615,266.777 255.988,265.893 256.199 C 263.907 256.674,263.847 255.703,265.388 248.006 C 268.883 230.538,278.132 211.005,291.256 193.371 L 296.615 186.170 298.028 188.110 C 298.806 189.177,300.679 190.682,302.192 191.454 M225.714 206.756 C 238.862 208.410,263.114 212.876,264.054 213.816 C 264.143 213.905,262.969 217.870,261.445 222.628 C 255.895 239.956,255.051 249.725,254.852 298.929 C 254.720 331.536,254.841 336.106,256.009 342.500 C 257.949 353.114,258.238 352.193,252.500 353.681 C 229.030 359.766,192.245 359.982,157.899 354.237 C 142.255 351.619,142.625 351.737,143.176 349.540 C 147.300 333.108,146.641 254.677,142.208 234.431 C 141.111 229.417,136.840 215.405,135.277 211.691 C 134.729 210.389,154.802 207.052,172.857 205.443 C 180.415 204.770,217.186 205.683,225.714 206.756 M102.857 261.034 C 114.697 262.510,128.431 265.015,136.169 267.110 L 141.981 268.684 142.506 291.105 C 143.605 337.972,144.734 335.450,120.000 341.403 C 91.127 348.352,83.810 348.108,77.435 339.987 C 69.319 329.649,52.903 320.753,41.850 320.705 C 40.636 320.699,38.920 320.501,38.036 320.264 L 36.429 319.833 36.429 289.964 L 36.429 260.095 38.393 259.757 C 43.492 258.880,93.524 259.871,102.857 261.034 M361.339 259.732 L 363.571 260.179 363.571 290.076 L 363.571 319.973 361.964 320.300 C 361.080 320.481,358.638 320.823,356.536 321.062 C 344.155 322.470,331.140 329.756,323.396 339.616 C 317.662 346.917,313.623 347.741,297.228 344.957 C 279.593 341.962,262.616 336.967,259.509 333.860 L 257.857 332.208 257.865 303.068 C 257.875 267.266,257.661 268.933,262.411 267.573 C 272.911 264.568,292.792 261.308,308.214 260.062 C 316.866 259.364,358.212 259.107,361.339 259.732 M96.122 266.837 C 95.131 267.828,95.000 272.217,95.000 304.320 L 95.000 340.681 96.765 341.838 C 99.024 343.318,103.608 342.428,123.929 336.566 L 138.214 332.445 138.666 322.829 C 139.319 308.916,139.380 272.143,138.750 272.140 C 138.455 272.138,129.072 270.692,117.899 268.926 C 94.002 265.148,97.478 265.482,96.122 266.837 M291.429 267.472 C 286.125 268.354,277.125 269.800,271.429 270.687 L 261.071 272.300 261.311 302.043 C 261.443 318.401,261.673 331.908,261.821 332.057 C 262.311 332.550,290.254 340.520,295.846 341.761 C 300.546 342.805,301.624 342.841,303.346 342.016 L 305.357 341.052 305.542 304.818 C 305.723 269.355,305.697 268.554,304.292 267.149 C 302.614 265.471,303.617 265.446,291.429 267.472 M118.393 271.835 L 136.429 274.578 136.376 299.253 C 136.347 312.825,136.105 325.347,135.840 327.081 L 135.357 330.234 119.286 334.794 C 110.446 337.303,102.089 339.420,100.714 339.499 L 98.214 339.643 98.028 305.000 C 97.839 269.797,97.904 268.167,99.470 268.757 C 99.958 268.941,108.473 270.326,118.393 271.835 M302.857 304.286 C 302.857 344.668,303.891 340.837,293.695 338.232 C 285.274 336.081,265.010 330.260,264.696 329.902 C 264.570 329.759,264.347 317.272,264.198 302.152 L 263.929 274.661 282.500 271.746 C 292.714 270.143,301.473 268.968,301.964 269.135 C 302.662 269.372,302.857 277.046,302.857 304.286 M30.924 328.579 C 6.393 332.161,-3.053 363.669,15.326 380.609 C 27.296 391.643,46.495 390.977,57.564 379.144 C 77.144 358.211,59.346 324.429,30.924 328.579 M359.835 328.624 C 340.060 331.557,328.877 353.652,337.895 371.971 C 348.748 394.016,381.004 393.888,391.832 371.756 C 402.566 349.815,384.168 325.014,359.835 328.624 M40.858 331.517 C 66.554 336.970,70.818 371.431,47.233 383.042 C 31.437 390.818,11.469 380.222,8.705 362.597 C 5.800 344.077,22.765 327.679,40.858 331.517 M371.100 331.823 C 398.044 338.839,399.115 376.149,372.608 384.378 C 356.952 389.238,341.096 379.335,337.752 362.608 C 334.091 344.294,352.771 327.050,371.100 331.823 M147.836 355.353 C 184.054 362.971,233.704 362.965,257.907 355.339 C 259.013 354.990,261.559 371.974,264.389 398.571 C 265.272 406.875,264.816 424.973,263.551 431.831 L 262.752 436.161 255.126 437.406 C 205.651 445.482,199.479 445.619,157.149 439.575 C 138.440 436.903,138.794 437.032,137.897 432.603 C 134.878 417.708,134.998 408.726,138.591 380.357 C 141.555 356.951,141.951 354.286,142.467 354.286 C 142.630 354.286,145.046 354.766,147.836 355.353 M142.920 373.267 C 142.432 381.755,142.206 388.873,142.419 389.085 C 143.230 389.897,160.080 393.654,169.643 395.155 C 178.389 396.528,182.554 396.729,202.857 396.755 C 226.729 396.787,232.737 396.361,249.821 393.429 L 258.571 391.927 258.540 388.999 C 258.499 385.143,256.046 361.522,255.644 361.121 C 255.473 360.949,252.124 361.248,248.202 361.785 C 216.441 366.136,166.958 364.397,144.939 358.156 C 143.949 357.876,143.695 359.780,142.920 373.267 M152.143 362.454 C 179.230 367.635,218.408 368.574,246.964 364.726 C 250.598 364.236,253.566 364.017,253.560 364.239 C 253.553 364.461,254.084 370.043,254.738 376.643 C 256.122 390.590,256.628 389.534,247.855 391.008 C 215.133 396.507,176.815 395.499,150.456 388.446 L 144.841 386.944 145.300 378.650 C 145.739 370.719,146.489 361.428,146.690 361.429 C 146.743 361.429,149.196 361.890,152.143 362.454 M235.000 458.607 C 235.000 477.256,234.846 477.136,258.980 477.140 L 276.175 477.143 280.230 479.339 L 284.286 481.536 284.286 487.554 C 284.286 493.496,284.263 493.571,282.500 493.571 L 280.714 493.571 280.714 501.369 L 280.714 509.168 277.511 510.391 C 273.545 511.905,269.315 511.377,265.551 508.897 L 262.888 507.143 200.979 507.143 L 139.071 507.143 135.178 509.048 C 130.886 511.148,124.494 511.640,121.604 510.094 C 120.091 509.284,120.000 508.790,120.000 501.403 L 120.000 493.571 118.214 493.571 C 116.441 493.571,116.429 493.526,116.429 487.104 L 116.429 480.636 120.378 478.889 C 124.211 477.194,124.833 477.143,141.628 477.140 C 165.885 477.136,165.714 477.268,165.714 458.607 L 165.714 447.143 200.357 447.143 L 235.000 447.143 235.000 458.607 M141.036 448.456 C 140.663 448.786,136.580 451.357,131.964 454.170 L 123.571 459.284 123.571 453.571 L 123.571 447.857 132.643 447.857 C 137.632 447.857,141.409 448.127,141.036 448.456 M144.643 459.383 C 134.036 465.710,124.955 471.044,124.464 471.234 C 123.805 471.491,123.580 470.392,123.604 467.041 L 123.637 462.500 135.569 455.215 L 147.500 447.930 155.714 447.904 L 163.929 447.878 144.643 459.383 M265.000 455.230 L 276.786 462.546 276.998 466.987 C 277.267 472.601,279.252 473.310,256.429 459.637 L 236.786 447.870 245.000 447.891 L 253.214 447.913 265.000 455.230 M277.143 453.571 L 277.143 459.284 268.750 454.170 C 264.134 451.357,260.052 448.786,259.679 448.456 C 259.305 448.127,263.082 447.857,268.071 447.857 L 277.143 447.857 277.143 453.571 M163.571 455.540 L 163.571 459.651 151.277 467.326 L 138.982 475.000 131.872 475.000 C 127.961 475.000,124.966 474.796,125.216 474.546 C 125.577 474.185,162.718 451.763,163.393 451.499 C 163.491 451.460,163.571 453.279,163.571 455.540 M275.583 474.630 C 275.786 474.834,272.753 475.000,268.843 475.000 L 261.733 475.000 249.438 467.326 L 237.143 459.651 237.143 455.589 L 237.143 451.528 256.178 462.894 C 266.647 469.146,275.379 474.427,275.583 474.630 M163.286 466.607 C 162.327 472.822,158.436 475.217,149.891 474.850 L 145.068 474.643 153.784 469.157 C 164.073 462.681,163.884 462.732,163.286 466.607 M247.039 469.286 L 255.686 474.643 250.843 474.850 C 242.233 475.218,238.389 472.831,237.413 466.512 C 236.832 462.745,236.178 462.556,247.039 469.286 " stroke="none" fill="#000000" fill-rule="evenodd"/></g></g></svg>